# xmcd
#
# Track frame offsets: 
#        150
#        22896
#        37500
#        50330
#        65933
#        81616
#        96693
#        124957
#        142729
#        160977
#        183481
#        201319
#        217923
#        235918
#
# Disc length: 3353 seconds
#
# Revision: 0
# Processed by: cddbd v1.5.2PL0 Copyright (c) Steve Scherf et al.
# Submitted via: ExactAudioCopyFreeDBPlugin 1.0
#
DISCID=c80d170e
DTITLE=K. Michelle - Rebellious Soul
DYEAR=2013
DGENRE=R&B
TTITLE0=My Life (feat. Meek Mill)
TTITLE1=The Right One (Interlude)
TTITLE2=Damn
TTITLE3=I Don't Like Me
TTITLE4=Can't Raise A Man
TTITLE5=V.S.O.P.
TTITLE6=Pay My Bills
TTITLE7=Sometimes
TTITLE8=Coochie Symphony (Interlude)
TTITLE9=Ride Out
TTITLE10=Hate On Her
TTITLE11=When I Get A Man
TTITLE12=Rebuild This Heart (Interlude)
TTITLE13=A Mother's Prayer
EXTD=
EXTT0=
EXTT1=
EXTT2=
EXTT3=
EXTT4=
EXTT5=
EXTT6=
EXTT7=
EXTT8=
EXTT9=
EXTT10=
EXTT11=
EXTT12=
EXTT13=
PLAYORDER=
